<svg xmlns="http://www.w3.org/2000/svg" version="1.1" xmlns:xlink="http://www.w3.org/1999/xlink" viewBox="0 0 200 200"><rect width="200" height="200" fill="url('#gradient')"></rect><defs><linearGradient id="gradient" gradientTransform="rotate(45 0.5 0.5)"><stop offset="0%" stop-color="#fefefe"></stop><stop offset="100%" stop-color="#757575"></stop></linearGradient></defs><g><g fill="#008dd5" transform="matrix(7.075623800383877,0,0,7.075623800383877,3.9139313131742455,137.36249516866027)" stroke="#0d4a68" stroke-width="0.35"><path d="M0.86-10.57L3.95-10.57L4.05-9.33Q5.15-10.76 7.07-10.76L7.07-10.76Q8.72-10.76 9.54-9.78Q10.35-8.79 10.38-6.81L10.38-6.81L10.38 0L7.08 0L7.08-6.67Q7.08-7.47 6.76-7.85Q6.44-8.22 5.59-8.22L5.59-8.22Q4.62-8.22 4.15-7.46L4.15-7.46L4.15 0L0.86 0L0.86-10.57ZM17.73-2.97L17.73-2.97Q17.73-3.39 17.29-3.64Q16.86-3.90 15.63-4.17Q14.39-4.44 13.59-4.89Q12.79-5.33 12.37-5.97Q11.95-6.60 11.95-7.42L11.95-7.42Q11.95-8.88 13.15-9.82Q14.36-10.76 16.30-10.76L16.30-10.76Q18.39-10.76 19.66-9.81Q20.93-8.87 20.93-7.32L20.93-7.32L17.63-7.32Q17.63-8.59 16.29-8.59L16.29-8.59Q15.77-8.59 15.42-8.31Q15.07-8.02 15.07-7.59L15.07-7.59Q15.07-7.15 15.50-6.88Q15.93-6.60 16.87-6.43Q17.81-6.25 18.53-6.01L18.53-6.01Q20.91-5.19 20.91-3.07L20.91-3.07Q20.91-1.62 19.62-0.71Q18.34 0.20 16.30 0.20L16.30 0.20Q14.94 0.20 13.88-0.29Q12.81-0.78 12.22-1.62Q11.62-2.46 11.62-3.39L11.62-3.39L14.70-3.39Q14.72-2.66 15.19-2.32Q15.65-1.98 16.39-1.98L16.39-1.98Q17.06-1.98 17.40-2.26Q17.73-2.53 17.73-2.97ZM24.48-3.19L24.48-3.19Q25.26-3.19 25.78-2.73Q26.30-2.27 26.30-1.54Q26.30-0.82 25.78-0.36Q25.26 0.11 24.48 0.11L24.48 0.11Q23.69 0.11 23.18-0.36Q22.67-0.83 22.67-1.54Q22.67-2.26 23.18-2.72Q23.69-3.19 24.48-3.19Z"></path></g></g></svg>